<svg width="159" height="224" viewBox="0 0 159 224" fill="none" xmlns="http://www.w3.org/2000/svg">
<path d="M4.35355 125.646C4.15829 125.451 3.84171 125.451 3.64645 125.646L0.464466 128.828C0.269204 129.024 0.269204 129.34 0.464466 129.536C0.659728 129.731 0.976311 129.731 1.17157 129.536L4 126.707L6.82843 129.536C7.02369 129.731 7.34027 129.731 7.53553 129.536C7.7308 129.34 7.7308 129.024 7.53553 128.828L4.35355 125.646ZM3.64645 202.354C3.84171 202.549 4.15829 202.549 4.35355 202.354L7.53553 199.172C7.7308 198.976 7.7308 198.66 7.53553 198.464C7.34027 198.269 7.02369 198.269 6.82843 198.464L4 201.293L1.17157 198.464C0.976311 198.269 0.659728 198.269 0.464466 198.464C0.269204 198.66 0.269204 198.976 0.464466 199.172L3.64645 202.354ZM3.5 126L3.5 202H4.5L4.5 126H3.5Z" fill="white"/>
<path d="M54.6464 3.6401C54.4512 3.83536 54.4512 4.15194 54.6464 4.34721L57.8284 7.52919C58.0237 7.72445 58.3403 7.72445 58.5355 7.52919C58.7308 7.33392 58.7308 7.01734 58.5355 6.82208L55.7071 3.99365L58.5355 1.16523C58.7308 0.969963 58.7308 0.653381 58.5355 0.458119C58.3403 0.262857 58.0237 0.262857 57.8284 0.458119L54.6464 3.6401ZM115.354 4.34721C115.549 4.15194 115.549 3.83536 115.354 3.6401L112.172 0.458119C111.976 0.262857 111.66 0.262857 111.464 0.458119C111.269 0.653381 111.269 0.969963 111.464 1.16523L114.293 3.99365L111.464 6.82208C111.269 7.01734 111.269 7.33392 111.464 7.52919C111.66 7.72445 111.976 7.72445 112.172 7.52919L115.354 4.34721ZM55 4.49365H115V3.49365H55V4.49365Z" fill="white"/>
<path d="M155.354 21.6464C155.158 21.4512 154.842 21.4512 154.646 21.6464L151.464 24.8284C151.269 25.0237 151.269 25.3403 151.464 25.5355C151.66 25.7308 151.976 25.7308 152.172 25.5355L155 22.7071L157.828 25.5355C158.024 25.7308 158.34 25.7308 158.536 25.5355C158.731 25.3403 158.731 25.0237 158.536 24.8284L155.354 21.6464ZM154.646 89.3536C154.842 89.5488 155.158 89.5488 155.354 89.3536L158.536 86.1716C158.731 85.9763 158.731 85.6597 158.536 85.4645C158.34 85.2692 158.024 85.2692 157.828 85.4645L155 88.2929L152.172 85.4645C151.976 85.2692 151.66 85.2692 151.464 85.4645C151.269 85.6597 151.269 85.9763 151.464 86.1716L154.646 89.3536ZM154.5 22V89H155.5V22H154.5Z" fill="white"/>
<path d="M46.5023 222.952C46.4757 223.227 46.677 223.471 46.9518 223.498L51.4309 223.931C51.7058 223.958 51.9502 223.756 51.9768 223.482C52.0033 223.207 51.8021 222.962 51.5272 222.936L47.5458 222.55L47.9311 218.569C47.9577 218.294 47.7565 218.05 47.4816 218.023C47.2068 217.997 46.9624 218.198 46.9358 218.473L46.5023 222.952ZM64.4977 209.048C64.5243 208.773 64.323 208.529 64.0482 208.502L59.5691 208.069C59.2942 208.042 59.0498 208.244 59.0232 208.518C58.9966 208.793 59.1979 209.038 59.4728 209.064L63.4542 209.45L63.0689 213.431C63.0423 213.706 63.2435 213.95 63.5184 213.977C63.7932 214.003 64.0376 213.802 64.0642 213.527L64.4977 209.048ZM47.3179 223.386L64.3179 209.386L63.6821 208.614L46.6821 222.614L47.3179 223.386Z" fill="white"/>
<line x1="114" y1="89.0225" x2="114" y2="21.9998" stroke="white" stroke-width="2"/>
<line x1="55" y1="201.547" x2="55" y2="124.686" stroke="white" stroke-width="2"/>
<line y1="-1" x2="70.0946" y2="-1" transform="matrix(0.851848 -0.52379 0.851848 0.52379 55 125.737)" stroke="white" stroke-width="2"/>
<line y1="-1" x2="17.4719" y2="-1" transform="matrix(0.801287 -0.59828 0.89214 0.451759 42 212)" stroke="white" stroke-width="2"/>
</svg>
