<svg width="159" height="222" viewBox="0 0 159 222" fill="none" xmlns="http://www.w3.org/2000/svg">
<path d="M4.35355 125.646C4.15829 125.451 3.84171 125.451 3.64645 125.646L0.464466 128.828C0.269204 129.024 0.269204 129.34 0.464466 129.536C0.659728 129.731 0.976311 129.731 1.17157 129.536L4 126.707L6.82843 129.536C7.02369 129.731 7.34027 129.731 7.53553 129.536C7.7308 129.34 7.7308 129.024 7.53553 128.828L4.35355 125.646ZM3.64645 202.354C3.84171 202.549 4.15829 202.549 4.35355 202.354L7.53553 199.172C7.7308 198.976 7.7308 198.66 7.53553 198.464C7.34027 198.269 7.02369 198.269 6.82843 198.464L4 201.293L1.17157 198.464C0.976311 198.269 0.659728 198.269 0.464466 198.464C0.269204 198.66 0.269204 198.976 0.464466 199.172L3.64645 202.354ZM3.5 126L3.5 202H4.5L4.5 126H3.5Z" fill="black"/>
<path d="M40.6464 3.64648C40.4512 3.84176 40.4512 4.15834 40.6465 4.35358L43.8287 7.53529C44.024 7.73054 44.3406 7.73051 44.5358 7.53523C44.7311 7.33995 44.7311 7.02337 44.5358 6.82812L41.7071 3.99994L44.5353 1.17127C44.7305 0.975991 44.7305 0.659408 44.5352 0.464163C44.34 0.268918 44.0234 0.268945 43.8281 0.464224L40.6464 3.64648ZM115.354 4.34718C115.549 4.1519 115.549 3.83531 115.353 3.64007L112.171 0.458361C111.976 0.263116 111.659 0.263143 111.464 0.458422C111.269 0.653701 111.269 0.970283 111.464 1.16553L114.293 3.99371L111.465 6.82238C111.269 7.01766 111.269 7.33424 111.465 7.52949C111.66 7.72473 111.977 7.72471 112.172 7.52943L115.354 4.34718ZM41 4.5L115 4.49365L115 3.49365L41 3.5L41 4.5Z" fill="black"/>
<path d="M155.354 21.6464C155.158 21.4512 154.842 21.4512 154.646 21.6464L151.464 24.8284C151.269 25.0237 151.269 25.3403 151.464 25.5355C151.66 25.7308 151.976 25.7308 152.172 25.5355L155 22.7071L157.828 25.5355C158.024 25.7308 158.34 25.7308 158.536 25.5355C158.731 25.3403 158.731 25.0237 158.536 24.8284L155.354 21.6464ZM154.646 89.3536C154.842 89.5488 155.158 89.5488 155.354 89.3536L158.536 86.1716C158.731 85.9763 158.731 85.6597 158.536 85.4645C158.34 85.2692 158.024 85.2692 157.828 85.4645L155 88.2929L152.172 85.4645C151.976 85.2692 151.66 85.2692 151.464 85.4645C151.269 85.6597 151.269 85.9763 151.464 86.1716L154.646 89.3536ZM154.5 22V89H155.5V22H154.5Z" fill="black"/>
<path d="M47.5062 219.867C47.463 220.139 47.649 220.395 47.9218 220.439L52.3664 221.143C52.6391 221.186 52.8952 221 52.9384 220.727C52.9816 220.454 52.7956 220.198 52.5228 220.155L48.5721 219.529L49.1978 215.578C49.241 215.306 49.0549 215.05 48.7822 215.006C48.5094 214.963 48.2533 215.149 48.2101 215.422L47.5062 219.867ZM66.3106 207.078C66.3538 206.806 66.1677 206.55 65.895 206.506L61.4504 205.802C61.1776 205.759 60.9215 205.945 60.8783 206.218C60.8351 206.491 61.0212 206.747 61.2939 206.79L65.2447 207.416L64.619 211.367C64.5758 211.639 64.7618 211.895 65.0346 211.939C65.3073 211.982 65.5634 211.796 65.6066 211.523L66.3106 207.078ZM48.2939 220.349L66.1106 207.405L65.5229 206.596L47.7061 219.54L48.2939 220.349Z" fill="black"/>
<line x1="114" y1="89.9243" x2="114" y2="18.9997" stroke="black" stroke-width="2"/>
<line x1="45.1666" y1="209" x2="45.1666" y2="127.664" stroke="black" stroke-width="2"/>
<line y1="-1" x2="79.7637" y2="-1" transform="matrix(0.87335 -0.487093 0.87335 0.487093 45 128.777)" stroke="black" stroke-width="2"/>
<line y1="-1" x2="19.7266" y2="-1" transform="matrix(0.827986 -0.560748 0.908729 0.417386 46.1666 209)" stroke="black" stroke-width="2"/>
</svg>
