<svg width="154" height="207" viewBox="0 0 154 207" fill="none" xmlns="http://www.w3.org/2000/svg">
<line x1="114" y1="87.9248" x2="114" y2="17.0001" stroke="black" stroke-width="2"/>
<line x1="45.1667" y1="207" x2="45.1667" y2="125.664" stroke="black" stroke-width="2"/>
<line y1="-1" x2="79.7637" y2="-1" transform="matrix(0.87335 -0.487093 0.87335 0.487093 45 126.777)" stroke="black" stroke-width="2"/>
<path d="M4.35355 125.646C4.15829 125.451 3.84171 125.451 3.64645 125.646L0.464466 128.828C0.269204 129.024 0.269204 129.34 0.464466 129.536C0.659728 129.731 0.976311 129.731 1.17157 129.536L4 126.707L6.82843 129.536C7.02369 129.731 7.34027 129.731 7.53553 129.536C7.7308 129.34 7.7308 129.024 7.53553 128.828L4.35355 125.646ZM3.64645 202.354C3.84171 202.549 4.15829 202.549 4.35355 202.354L7.53553 199.172C7.7308 198.976 7.7308 198.66 7.53553 198.464C7.34027 198.269 7.02369 198.269 6.82843 198.464L4 201.293L1.17157 198.464C0.976311 198.269 0.659728 198.269 0.464466 198.464C0.269204 198.66 0.269204 198.976 0.464466 199.172L3.64645 202.354ZM3.5 126L3.5 202H4.5L4.5 126H3.5Z" fill="black"/>
<path d="M44.6464 3.64648C44.4512 3.84176 44.4512 4.15834 44.6465 4.35359L47.8287 7.53528C48.024 7.73052 48.3406 7.73049 48.5359 7.53521C48.7311 7.33993 48.7311 7.02335 48.5358 6.82811L45.7071 3.99994L48.5353 1.17125C48.7305 0.975973 48.7305 0.65939 48.5352 0.464146C48.3399 0.268901 48.0234 0.26893 47.8281 0.46421L44.6464 3.64648ZM115.354 4.34717C115.549 4.15189 115.549 3.83531 115.353 3.64007L112.171 0.458375C111.976 0.263131 111.659 0.263159 111.464 0.458439C111.269 0.653719 111.269 0.970302 111.464 1.16555L114.293 3.99372L111.465 6.8224C111.269 7.01768 111.269 7.33426 111.465 7.52951C111.66 7.72475 111.977 7.72472 112.172 7.52944L115.354 4.34717ZM45 4.5L115 4.49365L115 3.49365L45 3.5L45 4.5Z" fill="black"/>
<path d="M150.354 17.6464C150.158 17.4512 149.842 17.4512 149.646 17.6464L146.464 20.8284C146.269 21.0237 146.269 21.3403 146.464 21.5355C146.66 21.7308 146.976 21.7308 147.172 21.5355L150 18.7071L152.828 21.5355C153.024 21.7308 153.34 21.7308 153.536 21.5355C153.731 21.3403 153.731 21.0237 153.536 20.8284L150.354 17.6464ZM149.646 87.8536C149.842 88.0488 150.158 88.0488 150.354 87.8536L153.536 84.6716C153.731 84.4763 153.731 84.1597 153.536 83.9645C153.34 83.7692 153.024 83.7692 152.828 83.9645L150 86.7929L147.172 83.9645C146.976 83.7692 146.66 83.7692 146.464 83.9645C146.269 84.1597 146.269 84.4763 146.464 84.6716L149.646 87.8536ZM149.5 18V87.5H150.5V18H149.5Z" fill="black"/>
</svg>
