<svg width="363" height="193" viewBox="0 0 363 193" fill="none" xmlns="http://www.w3.org/2000/svg">
<path d="M4.35355 55.6464C4.15829 55.4512 3.84171 55.4512 3.64645 55.6464L0.464466 58.8284C0.269204 59.0237 0.269204 59.3403 0.464466 59.5355C0.659728 59.7308 0.976311 59.7308 1.17157 59.5355L4 56.7071L6.82843 59.5355C7.02369 59.7308 7.34027 59.7308 7.53553 59.5355C7.7308 59.3403 7.7308 59.0237 7.53553 58.8284L4.35355 55.6464ZM3.64645 183.354C3.84171 183.549 4.15829 183.549 4.35355 183.354L7.53553 180.172C7.7308 179.976 7.7308 179.66 7.53553 179.464C7.34027 179.269 7.02369 179.269 6.82843 179.464L4 182.293L1.17157 179.464C0.976311 179.269 0.659728 179.269 0.464466 179.464C0.269204 179.66 0.269204 179.976 0.464466 180.172L3.64645 183.354ZM3.5 56L3.5 183H4.5L4.5 56H3.5Z" fill="black"/>
<path d="M334.387 4.31612C334.562 4.10217 334.53 3.7872 334.316 3.61261L330.83 0.767551C330.616 0.592964 330.301 0.624873 330.126 0.838822C329.952 1.05277 329.983 1.36774 330.197 1.54233L333.296 4.07127L330.768 7.17037C330.593 7.38432 330.625 7.69929 330.839 7.87388C331.053 8.04847 331.368 8.01656 331.542 7.80261L334.387 4.31612ZM27.6126 34.6839C27.438 34.8978 27.4699 35.2128 27.6839 35.3874L31.1704 38.2324C31.3843 38.407 31.6993 38.3751 31.8739 38.1612C32.0485 37.9472 32.0166 37.6323 31.8026 37.4577L28.7035 34.9287L31.2324 31.8296C31.4071 31.6157 31.3751 31.3007 31.1612 31.1261C30.9472 30.9515 30.6323 30.9834 30.4577 31.1974L27.6126 34.6839ZM333.95 3.50255L27.9496 34.5025L28.0504 35.4975L334.05 4.49745L333.95 3.50255Z" fill="black"/>
<path d="M334.354 189.354C334.549 189.158 334.549 188.842 334.354 188.646L331.172 185.464C330.976 185.269 330.66 185.269 330.464 185.464C330.269 185.66 330.269 185.976 330.464 186.172L333.293 189L330.464 191.828C330.269 192.024 330.269 192.34 330.464 192.536C330.66 192.731 330.976 192.731 331.172 192.536L334.354 189.354ZM306.646 188.646C306.451 188.842 306.451 189.158 306.646 189.354L309.828 192.536C310.024 192.731 310.34 192.731 310.536 192.536C310.731 192.34 310.731 192.024 310.536 191.828L307.707 189L310.536 186.172C310.731 185.976 310.731 185.66 310.536 185.464C310.34 185.269 310.024 185.269 309.828 185.464L306.646 188.646ZM334 188.5H307V189.5H334V188.5Z" fill="black"/>
<path d="M359.354 140.646C359.158 140.451 358.842 140.451 358.646 140.646L355.464 143.828C355.269 144.024 355.269 144.34 355.464 144.536C355.66 144.731 355.976 144.731 356.172 144.536L359 141.707L361.828 144.536C362.024 144.731 362.34 144.731 362.536 144.536C362.731 144.34 362.731 144.024 362.536 143.828L359.354 140.646ZM358.646 172.354C358.842 172.549 359.158 172.549 359.354 172.354L362.536 169.172C362.731 168.976 362.731 168.66 362.536 168.464C362.34 168.269 362.024 168.269 361.828 168.464L359 171.293L356.172 168.464C355.976 168.269 355.66 168.269 355.464 168.464C355.269 168.66 355.269 168.976 355.464 169.172L358.646 172.354ZM358.5 141V172H359.5V141H358.5Z" fill="black"/>
<path d="M359.354 25.6464C359.158 25.4512 358.842 25.4512 358.646 25.6464L355.464 28.8284C355.269 29.0237 355.269 29.3403 355.464 29.5355C355.66 29.7308 355.976 29.7308 356.172 29.5355L359 26.7071L361.828 29.5355C362.024 29.7308 362.34 29.7308 362.536 29.5355C362.731 29.3403 362.731 29.0237 362.536 28.8284L359.354 25.6464ZM358.646 141.354C358.842 141.549 359.158 141.549 359.354 141.354L362.536 138.172C362.731 137.976 362.731 137.66 362.536 137.464C362.34 137.269 362.024 137.269 361.828 137.464L359 140.293L356.172 137.464C355.976 137.269 355.66 137.269 355.464 137.464C355.269 137.66 355.269 137.976 355.464 138.172L358.646 141.354ZM358.5 26V141H359.5V26H358.5Z" fill="black"/>
<line x1="28" y1="183" x2="28" y2="56" stroke="black" stroke-width="2"/>
<line x1="27.896" y1="57.0054" x2="333.896" y2="25.0054" stroke="black" stroke-width="2"/>
<line x1="333" y1="142" x2="333" y2="26" stroke="black" stroke-width="2"/>
<line x1="307" y1="141" x2="334" y2="141" stroke="black" stroke-width="2"/>
<line x1="308" y1="172" x2="308" y2="141" stroke="black" stroke-width="2"/>
</svg>
